<svg width="16" height="16" viewBox="0 0 16 16" fill="none" xmlns="http://www.w3.org/2000/svg">
<g clip-path="url(#clip0_105_15548)">
<path d="M5.99975 14.6667L5.83266 12.3274C5.74283 11.0697 6.73889 10 7.99975 10C9.26061 10 10.2567 11.0697 10.1668 12.3274L9.99975 14.6667" stroke="#808080"/>
<path d="M1.56776 8.80864C1.33241 7.27717 1.21474 6.51143 1.50427 5.83259C1.79381 5.15375 2.43618 4.6893 3.72092 3.76038L4.68082 3.06634C6.27902 1.91079 7.07812 1.33301 8.00016 1.33301C8.9222 1.33301 9.7213 1.91079 11.3195 3.06634L12.2794 3.76038C13.5641 4.6893 14.2065 5.15375 14.4961 5.83259C14.7856 6.51143 14.6679 7.27717 14.4326 8.80864L14.2319 10.1146C13.8982 12.2856 13.7314 13.3711 12.9528 14.0187C12.1742 14.6663 11.0359 14.6663 8.75937 14.6663H7.24095C4.96438 14.6663 3.8261 14.6663 3.0475 14.0187C2.26889 13.3711 2.10208 12.2856 1.76845 10.1146L1.56776 8.80864Z" stroke="#808080" stroke-linejoin="round"/>
</g>
<defs>
<clipPath id="clip0_105_15548">
<rect width="16" height="16" fill="white"/>
</clipPath>
</defs>
</svg>
